Coordinates
version=1
nRows=8
nColumns=63
inDegrees=yes

Units are S.I. units (second, meters, Newtons, ...)
If the header above contains a line with 'inDegrees', this indicates whether rotational values are in degrees (yes) or radians (no).

endheader
time	pelvis_tilt	pelvis_list	pelvis_rotation	pelvis_tx	pelvis_ty	pelvis_tz	hip_flexion_r	hip_adduction_r	hip_rotation_r	knee_angle_r	knee_angle_r_beta	ankle_angle_r	subtalar_angle_r	mtp_angle_r	hip_flexion_l	hip_adduction_l	hip_rotation_l	knee_angle_l	knee_angle_l_beta	ankle_angle_l	subtalar_angle_l	mtp_angle_l	L5_S1_Flex_Ext	L5_S1_Lat_Bending	L5_S1_axial_rotation	L4_L5_Flex_Ext	L4_L5_Lat_Bending	L4_L5_axial_rotation	L3_L4_Flex_Ext	L3_L4_Lat_Bending	L3_L4_axial_rotation	L2_L3_Flex_Ext	L2_L3_Lat_Bending	L2_L3_axial_rotation	L1_L2_Flex_Ext	L1_L2_Lat_Bending	L1_L2_axial_rotation	L1_T12_Flex_Ext	L1_T12_Lat_Bending	L1_T12_axial_rotation	Abs_r3	Abs_r2	Abs_r1	Abs_t1	Abs_t2	neck_flexion	neck_bending	neck_rotation	arm_flex_r	arm_add_r	arm_rot_r	elbow_flex_r	pro_sup_r	wrist_flex_r	wrist_dev_r	arm_flex_l	arm_add_l	arm_rot_l	elbow_flex_l	pro_sup_l	wrist_flex_l	wrist_dev_l
3.357143	-0.265726	-4.563298	103.681730	0.186523	1.104648	0.485747	5.627312	0.004326	0.950057	3.171131	0.055347	20.368517	1.083292	0.000000	8.293567	-0.575038	-2.736949	7.083430	0.123629	18.850330	11.627052	0.000000	-0.383090	-0.904621	0.566292	-0.711436	-1.203145	0.601685	-0.629378	-2.199495	0.601685	-0.437833	-2.199495	0.495505	-0.355737	-1.844702	0.460112	-0.218897	-1.401257	0.424719	-2.736371	-10.233249	3.149545	0.000000	0.000000	6.223978	12.308312	-14.455009	58.219381	-30.024352	-1.661757	140.433620	63.402858	37.740964	25.532468	10.181842	-14.480401	137.086315	0.702825	2.008295	-9.268995	-14.176912
3.380952	-0.108983	-4.604816	103.738135	0.186653	1.104662	0.486226	5.780675	0.136152	0.870413	3.249370	0.056712	20.406216	1.320709	0.000000	8.416639	-0.716497	-2.471698	7.131849	0.124474	18.706665	11.342223	0.000000	-0.397654	-0.894511	0.569524	-0.738483	-1.189700	0.605120	-0.653305	-2.174915	0.605120	-0.454478	-2.174915	0.498334	-0.369261	-1.824088	0.462739	-0.227219	-1.385598	0.427143	-2.840400	-10.118892	3.167523	0.000000	0.000000	6.206287	12.448102	-14.224720	58.229251	-30.176047	-1.659216	140.593471	63.653088	36.030754	25.854609	10.224989	-14.346456	136.555913	0.596982	1.855168	-9.236976	-14.631322
3.404762	-0.003068	-4.680903	103.723540	0.186849	1.104677	0.486662	5.975204	0.209065	0.790529	3.360655	0.058654	20.469321	1.625081	0.000000	8.551352	-0.806482	-2.275661	7.163978	0.125035	18.526118	11.063701	0.000000	-0.402340	-0.892586	0.578504	-0.747185	-1.187139	0.614660	-0.661004	-2.170233	0.614660	-0.459834	-2.170233	0.506191	-0.373613	-1.820161	0.470034	-0.229897	-1.382615	0.433878	-2.873873	-10.097108	3.217464	0.000000	0.000000	6.535194	12.575660	-14.257576	57.703132	-30.261324	-1.225985	140.640493	63.653157	32.909845	25.870243	10.253753	-14.307219	135.849096	0.591221	1.785340	-9.122126	-14.943022
3.428571	0.031475	-4.792925	103.579281	0.187183	1.104687	0.486990	6.208067	0.209064	0.786011	3.503213	0.061143	20.542740	1.972780	0.000000	8.672918	-0.831426	-2.265928	7.142935	0.124668	18.317456	10.862330	0.000000	-0.392999	-0.901429	0.596816	-0.729839	-1.198901	0.634118	-0.645659	-2.191735	0.634118	-0.449159	-2.191735	0.522214	-0.364939	-1.838195	0.484913	-0.224560	-1.396314	0.447612	-2.807155	-10.197149	3.319314	0.000000	0.000000	7.088535	12.653992	-14.581582	56.728826	-30.204210	-0.385144	140.419757	62.855517	28.673885	25.585951	10.215173	-14.367398	135.043305	0.632446	1.754414	-8.946562	-15.081784
3.452381	0.004539	-4.900989	103.369947	0.187597	1.104708	0.487252	6.432556	0.147407	0.732766	3.679621	0.064221	20.671029	2.456076	0.000000	8.758215	-0.804254	-2.387591	7.091980	0.123778	18.106037	10.752034	0.000000	-0.376346	-0.918519	0.607570	-0.698912	-1.221630	0.645543	-0.618298	-2.233287	0.645543	-0.430126	-2.233287	0.531624	-0.349475	-1.873044	0.493651	-0.215044	-1.422786	0.455678	-2.688200	-10.390472	3.379124	0.000000	0.000000	7.807745	12.723610	-15.061753	55.467535	-29.968215	0.819703	139.748474	61.179547	23.966832	25.129089	10.101866	-14.516798	134.320138	0.697611	1.782168	-8.806381	-14.988195
3.476190	-0.068060	-4.998563	103.087740	0.188107	1.104699	0.487414	6.643361	0.050197	0.729983	3.883524	0.067780	20.825283	2.917597	0.000000	8.798712	-0.744128	-2.640954	7.009307	0.122335	17.918342	10.719068	0.000000	-0.351778	-0.941271	0.624564	-0.653287	-1.251891	0.663599	-0.577937	-2.288607	0.663599	-0.402047	-2.288607	0.546493	-0.326661	-1.919440	0.507458	-0.201006	-1.458029	0.468423	-2.512717	-10.647848	3.473637	0.000000	0.000000	8.555609	12.720618	-15.734302	53.964180	-29.647471	2.298480	138.589317	59.158921	19.193335	24.628459	9.949423	-14.737108	133.911074	0.787707	1.901627	-8.705826	-14.605901
3.500000	-0.193504	-5.087205	102.789188	0.188659	1.104650	0.487443	6.819346	-0.093173	0.756324	4.080995	0.071227	21.006088	3.337101	0.000000	8.803345	-0.640609	-2.999291	6.915494	0.120698	17.744126	10.790295	0.000000	-0.318800	-0.970725	0.636628	-0.592043	-1.291064	0.676417	-0.523756	-2.360221	0.676417	-0.364356	-2.360221	0.557049	-0.296037	-1.979503	0.517260	-0.182162	-1.503653	0.477471	-2.277155	-10.981036	3.540732	0.000000	0.000000	9.222374	12.690711	-16.516373	52.312411	-29.240083	4.013066	136.862827	57.590858	15.013408	24.116153	9.734352	-15.027758	133.806740	0.879960	2.076200	-8.622276	-13.942353
3.523810	-0.343175	-5.149946	102.487799	0.189208	1.104560	0.487332	6.937247	-0.250536	0.824883	4.244330	0.074078	21.188471	3.685104	0.000000	8.761155	-0.523373	-3.432263	6.814704	0.118939	17.588249	10.939171	0.000000	-0.280016	-1.002697	0.644710	-0.520017	-1.333587	0.685005	-0.460038	-2.437957	0.685005	-0.320030	-2.437957	0.564122	-0.260023	-2.044699	0.523827	-0.160001	-1.553177	0.483533	-2.000125	-11.342706	3.585686	0.000000	0.000000	9.713664	12.605923	-17.390282	50.565985	-28.798273	5.984265	134.549430	56.897028	11.671969	23.627741	9.460490	-15.361154	133.903103	0.972040	2.277571	-8.506222	-13.057790
